<svg xmlns="http://www.w3.org/2000/svg" viewBox="0 0 455.7 115.9" class="mb-1 h-2.5" data-tip="" data-for="domainRating" currentItem="false"><path fill="#f18618" d="M7.7,45.6H52V58L35.3,59.3C8.4,61.3,0,68.4,0,88.4v4c0,14.6,10.2,23.4,26,23.4, 12.4,0,19.6-2.9,28.4-11.9h1.5v9.5H73.7V26.1H7.7ZM52,87.7c-5.5,5.5-13.7,9.1-20.5,9.1-7.3,0-10.4-2.7-10.2-8.8.2-8.4, 3.3-10.4,17.4-11.7L52.1,75V87.7Z"></path><path fill="#2e53a0" fill-rule="evenodd" d="M110.9,26.2h34.2V44h18.7v69.5H142V45.8H110.9v67.7H89.1V0h21.8V26.2ZM429.3, 61.4l-13.2-1.3c-7.3-.7-9.1-2.6-9.1-8.4,0-6.6,2.6-8.2,12.8-8.2,9.1,0,11.7,1.5,13,7.7h20.5c-.5-20.9-7-26.2-32.4-26.2-27.8, 0-34.8,5.3-34.8,26.7,0,19.6,5.1,24.9,25.8,26.9l10.8,1c9.7.9,12.1,2.7,12.1,8.6,0,7.1-2.9,9-14.8,9-10.4,0-13.2-1.6-13.7-8.4H385.6c.5, 21.6,7.1,27.1,33.5,27.1,29.3,0,36.6-5.9,36.6-29.7C455.7,68.5,450.4,63.4,429.3,61.4ZM317.2,63c0-28.2-9.7-38.1-37.5-38.1-27.5,0-38.2, 12.8-38.2,44.7,0,34.8,9.5,46.3,40.3,46.3,22.1,0,31.5-6.8,34.6-25.8h-21c-2.4,5.9-4.9,7.2-13.9,7.2-13.5,0-17-3.8-17.8-20.1h52.2A98.64,98.64, 0,0,0,317.2,63Zm-53.4-3.1c.2-12.3,5.1-16.8,16.8-16.8,11.2,0,15.7,4.6,16.1,16.8Zm66.1-29.8v83.5h21.8V45h26.2V26.3H351.7V23.9c.2-5.1, 1.5-6.6,5.7-6.6h23.8V.1H355.6C338.1,0,329.9,5.4,329.9,30.1ZM201.5,113.5H179.7V26.2h54.2V46.7H201.5v66.8Z"></path></svg>