<svg xmlns="http://www.w3.org/2000/svg" viewBox="0 0 45 26" class="mb-1 h-2.5" data-tip="" data-for="authorityScore" currentItem="false"><path fill="#ff642d" d="M37.4,12.8c0,.8-.4.9-1.4.9s-1.3-.2-1.4-1a4.15,4.15,0,0,0-4-4c-.7-.1-.9-.3-.9-1.3s.1-1.3.8-1.3A7, 7,0,0,1,37.4,12.8Zm5.9,0C43.3,6.6,39.1,0,29.3,0H10c-.4,0-.7.2-.7.6a.55.55,0,0,0,.3.5A15.48,15.48,0,0,0,12.7, 3a29.85,29.85,0,0,0,3.4,1.5q.6.3.6.6c0,.3-.2.6-.7.6H.7c-.5-.1-.7.2-.7.5a.91.91,0,0,0,.3.7,30.14,30.14,0,0,0, 6.1,4.7,83.21,83.21,0,0,0,8.2,4.5c.4.2.6.4.6.7s-.2.5-.7.5H7.4c-.4,0-.6.2-.6.5a.86.86,0,0,0,.3.6,28,28,0,0,0, 7.6,4.5A36.83,36.83,0,0,0,29.1,26C39,26,43.3,18.6,43.3,12.8ZM30.4,21.7a8.92,8.92,0,0,1-8.9-8.9,8.9,8.9,0,1,1,8.9,8.9Z"/></svg>