<svg xmlns="http://www.w3.org/2000/svg" viewBox="0 0 195.1 26" class="mb-1 h-2.5" data-tip="" data-for="authorityScore" currentItem="false"><path d="M134.7,10.2c0-3.2-2-5.5-5.7-5.5H116.8V21.3h4V15.6h4.7l4.6,5.7h4.5v-.4l-4.5-5.4A5.34,5.34, 0,0,0,134.7,10.2Zm-6.2,2h-7.7V8.1h7.7a2.05,2.05,0,0,1,2.3,2.1C130.9,11.5,130,12.2,128.5,12.2Z"></path><path d="M195.1,4.6h-3.7v6.3H181.3V4.6h-4V21.2h4V14.7h10.1v6.5h3.7Z"></path><path d="M106.1,4.6l-4.4,13.9h-.2L97,4.6H89.9V21.2h3.8V7.6h.2l4.4,13.6h6.1l4.5-13.6h.2V21.2H113V4.6Z"></path><path d="M62.6,11.4c-1.4-.1-4-.4-5.5-.5s-2.2-.6-2.2-1.5.9-1.6,4.3-1.6a20.57,20.57,0,0,1,8.3,1.8V5.9A18.43, 18.43,0,0,0,59,4.2c-4.7,0-8,2-8,5.3,0,2.8,1.9,4.4,5.8,4.8,1.4.2,3.8.4,5.4.5,1.8.1,2.3.7,2.3,1.5,0,1.1-1.3, 1.8-4.4,1.8a18.49,18.49,0,0,1-8.9-2.5v3.8A16.21,16.21,0,0,0,60,21.7c5.1,0,8.4-2,8.4-5.5C68.4,13.5,66.7,11.8,62.6,11.4Z"></path><path d="M71.1,4.6V21.2H86.5V17.8H74.9V14.4H86.3V11H74.9V8H86.5V4.6Z"></path><path d="M169,11.4c-1.4-.1-4-.4-5.5-.5s-2.2-.6-2.2-1.5.9-1.6,4.3-1.6a19,19,0,0,1,8.3,1.8V5.9a18.43,18.43, 0,0,0-8.5-1.7c-4.7,0-8,2-8,5.3,0,2.8,1.9,4.4,5.8,4.8,1.4.2,3.8.4,5.4.5,1.8.1,2.3.7,2.3,1.5,0,1.1-1.3,1.8-4.4, 1.8a18.49,18.49,0,0,1-8.9-2.5v3.8a16.21,16.21,0,0,0,8.8,2.3c5.1,0,8.4-2,8.4-5.5C174.8,13.5,173,11.8,169,11.4Z"></path><path d="M150.7,4.6v8.5c0,3.2-2,5-4.9,5s-4.9-1.7-4.9-5V4.6h-4v8.1c0,6,3.8,9,8.9,9s8.8-2.9,8.8-8.8V4.6Z"></path><path fill="#ff642d" d="M37.4,12.8c0,.8-.4.9-1.4.9s-1.3-.2-1.4-1a4.15,4.15,0,0,0-4-4c-.7-.1-.9-.3-.9-1.3s.1-1.3.8-1.3A7, 7,0,0,1,37.4,12.8Zm5.9,0C43.3,6.6,39.1,0,29.3,0H10c-.4,0-.7.2-.7.6a.55.55,0,0,0,.3.5A15.48,15.48,0,0,0,12.7, 3a29.85,29.85,0,0,0,3.4,1.5q.6.3.6.6c0,.3-.2.6-.7.6H.7c-.5-.1-.7.2-.7.5a.91.91,0,0,0,.3.7,30.14,30.14,0,0,0, 6.1,4.7,83.21,83.21,0,0,0,8.2,4.5c.4.2.6.4.6.7s-.2.5-.7.5H7.4c-.4,0-.6.2-.6.5a.86.86,0,0,0,.3.6,28,28,0,0,0, 7.6,4.5A36.83,36.83,0,0,0,29.1,26C39,26,43.3,18.6,43.3,12.8ZM30.4,21.7a8.92,8.92,0,0,1-8.9-8.9,8.9,8.9,0,1,1,8.9,8.9Z"></path></svg>